<svg xmlns="http://www.w3.org/2000/svg" viewBox="0 0 512 512">
  <defs>
    <linearGradient id="bg" x1="0" y1="0" x2="0" y2="1">
      <stop offset="0%" stop-color="#1f8790"/>
      <stop offset="55%" stop-color="#196C74"/>
      <stop offset="100%" stop-color="#0f4d53"/>
    </linearGradient>
  </defs>
  <rect width="512" height="512" rx="112" fill="url(#bg)"/>
  <g opacity="0.55" stroke="#b4dceb" fill="none">
    <circle cx="470" cy="30" r="140" stroke-width="3" opacity="0.5"/>
    <circle cx="470" cy="30" r="200" stroke-width="3" opacity="0.4"/>
    <circle cx="470" cy="30" r="260" stroke-width="3" opacity="0.3"/>
    <circle cx="470" cy="30" r="320" stroke-width="3" opacity="0.2"/>
  </g>
  <g transform="translate(256 262)">
    <path d="M -150 0
             C -150 -70 -60 -108 40 -108
             C 110 -108 150 -75 168 -30
             C 150 15 110 48 40 48
             C -60 48 -150 70 -150 0 Z"
          fill="#f5f9f8"/>
    <path d="M 160 -34 L 230 -78 L 195 0 L 230 82 L 160 34 Z" fill="#f5f9f8"/>
    <path d="M -10 -104 C 20 -140 60 -140 78 -108 C 50 -100 15 -100 -10 -104 Z" fill="#f5f9f8"/>
    <path d="M -55 42 C -50 74 -20 88 5 78 C -15 60 -35 48 -55 42 Z" fill="#f5f9f8"/>
    <circle cx="-95" cy="-28" r="15" fill="#234f5b"/>
    <circle cx="-91" cy="-32" r="5" fill="#f5f9f8"/>
    <path d="M -40 -60 Q -55 0 -40 60" stroke="#dce9e7" stroke-width="5" fill="none" opacity="0.5"/>
  </g>
  <circle cx="380" cy="120" r="16" fill="#f0bc5c"/>
</svg>
